HIERARCHY
ROOT hip
{
  OFFSET 0 0 0
  CHANNELS 6 Xposition Yposition Zposition Zrotation Yrotation Xrotation
  JOINT abdomen
  {
    OFFSET 0 20.6881 -0.73152
    CHANNELS 3 Zrotation Xrotation Yrotation
    JOINT chest
    {
      OFFSET 0 11.7043 -0.48768
      CHANNELS 3 Zrotation Xrotation Yrotation
      JOINT neck
      {
        OFFSET 0 22.1894 -2.19456
        CHANNELS 3 Zrotation Xrotation Yrotation
        JOINT head
        {
          OFFSET -0.24384 7.07133 1.2192
          CHANNELS 3 Zrotation Xrotation Yrotation
          JOINT leftEye
          {
            OFFSET 4.14528 8.04674 8.04672
            CHANNELS 3 Zrotation Xrotation Yrotation
            End Site
            {
              OFFSET 1 0 0
            }
          }
          JOINT rightEye
          {
            OFFSET -3.6576 8.04674 8.04672
            CHANNELS 3 Zrotation Xrotation Yrotation
            End Site
            {
              OFFSET 1 0 0
            }
          }
        }
      }
      JOINT rCollar
      {
        OFFSET -2.68224 19.2634 -4.8768
        CHANNELS 3 Zrotation Xrotation Yrotation
        JOINT rShldr
        {
          OFFSET -8.77824 -1.95073 1.46304
          CHANNELS 3 Zrotation Xrotation Yrotation
          JOINT rForeArm
          {
            OFFSET -28.1742 -1.7115 0.48768
            CHANNELS 3 Zrotation Xrotation Yrotation
            JOINT rHand
            {
              OFFSET -22.5879 0.773209 7.07136
              CHANNELS 3 Zrotation Xrotation Yrotation
              JOINT rThumb1
              {
                OFFSET -1.2192 -0.487915 3.41376
                CHANNELS 3 Zrotation Xrotation Yrotation
                JOINT rThumb2
                {
                  OFFSET -3.37035 -0.52449 3.41376
                  CHANNELS 3 Zrotation Xrotation Yrotation
                  End Site
                  {
                    OFFSET -1.78271 -1.18214 1.43049
                  }
                }
              }
              JOINT rIndex1
              {
                OFFSET -7.75947 0.938293 5.60832
                CHANNELS 3 Zrotation Xrotation Yrotation
                JOINT rIndex2
                {
                  OFFSET -2.54057 -0.884171 1.56538
                  CHANNELS 3 Zrotation Xrotation Yrotation
                  End Site
                  {
                    OFFSET -1.62519 -0.234802 1.16502
                  }
                }
              }
              JOINT rMid1
              {
                OFFSET -8.24714 1.18213 3.41376
                CHANNELS 3 Zrotation Xrotation Yrotation
                JOINT rMid2
                {
                  OFFSET -3.10165 -0.590103 1.0647
                  CHANNELS 3 Zrotation Xrotation Yrotation
                  End Site
                  {
                    OFFSET -2.48547 -0.328903 0.83742
                  }
                }
              }
              JOINT rRing1
              {
                OFFSET -8.82822 0.546677 1.51678
                CHANNELS 3 Zrotation Xrotation Yrotation
                JOINT rRing2
                {
                  OFFSET -2.60934 -0.819778 -0.0198488
                  CHANNELS 3 Zrotation Xrotation Yrotation
                  End Site
                  {
                    OFFSET -2.33842 -0.294052 0.168128
                  }
                }
              }
              JOINT rPinky1
              {
                OFFSET -8.27202 -0.0477905 -0.4584
                CHANNELS 3 Zrotation Xrotation Yrotation
                JOINT rPinky2
                {
                  OFFSET -1.82734 -0.647385 -0.700984
                  CHANNELS 3 Zrotation Xrotation Yrotation
                  End Site
                  {
                    OFFSET -1.69225 -0.51767 -0.607171
                  }
                }
              }
            }
          }
        }
      }
      JOINT lCollar
      {
        OFFSET 2.68224 19.2634 -4.8768
        CHANNELS 3 Zrotation Xrotation Yrotation
        JOINT lShldr
        {
          OFFSET 8.77824 -1.95073 1.46304
          CHANNELS 3 Zrotation Xrotation Yrotation
          JOINT lForeArm
          {
            OFFSET 28.1742 -1.7115 0.48768
            CHANNELS 3 Zrotation Xrotation Yrotation
            JOINT lHand
            {
              OFFSET 22.5879 0.773209 7.07136
              CHANNELS 3 Zrotation Xrotation Yrotation
              JOINT lThumb1
              {
                OFFSET 1.2192 -0.487915 3.41376
                CHANNELS 3 Zrotation Xrotation Yrotation
                JOINT lThumb2
                {
                  OFFSET 3.37035 -0.52449 3.41376
                  CHANNELS 3 Zrotation Xrotation Yrotation
                  End Site
                  {
                    OFFSET 1.78271 -1.18214 1.43049
                  }
                }
              }
              JOINT lIndex1
              {
                OFFSET 7.75947 0.938293 5.60832
                CHANNELS 3 Zrotation Xrotation Yrotation
                JOINT lIndex2
                {
                  OFFSET 2.54057 -0.884171 1.56538
                  CHANNELS 3 Zrotation Xrotation Yrotation
                  End Site
                  {
                    OFFSET 1.62519 -0.234802 1.16502
                  }
                }
              }
              JOINT lMid1
              {
                OFFSET 8.24714 1.18213 3.41376
                CHANNELS 3 Zrotation Xrotation Yrotation
                JOINT lMid2
                {
                  OFFSET 3.10165 -0.590103 1.0647
                  CHANNELS 3 Zrotation Xrotation Yrotation
                  End Site
                  {
                    OFFSET 2.48547 -0.328903 0.83742
                  }
                }
              }
              JOINT lRing1
              {
                OFFSET 8.82822 0.546677 1.51678
                CHANNELS 3 Zrotation Xrotation Yrotation
                JOINT lRing2
                {
                  OFFSET 2.60934 -0.819778 -0.0198488
                  CHANNELS 3 Zrotation Xrotation Yrotation
                  End Site
                  {
                    OFFSET 2.33842 -0.294052 0.168128
                  }
                }
              }
              JOINT lPinky1
              {
                OFFSET 8.27202 -0.0477905 -0.4584
                CHANNELS 3 Zrotation Xrotation Yrotation
                JOINT lPinky2
                {
                  OFFSET 1.82734 -0.647385 -0.700984
                  CHANNELS 3 Zrotation Xrotation Yrotation
                  End Site
                  {
                    OFFSET 1.69225 -0.51767 -0.607171
                  }
                }
              }
            }
          }
        }
      }
    }
  }
  JOINT rButtock
  {
    OFFSET -8.77824 4.35084 1.2192
    CHANNELS 3 Zrotation Xrotation Yrotation
    JOINT rThigh
    {
      OFFSET 0 -1.70687 -2.19456
      CHANNELS 3 Zrotation Xrotation Yrotation
      JOINT rShin
      {
        OFFSET 0 -36.8199 0.73152
        CHANNELS 3 Zrotation Xrotation Yrotation
        JOINT rFoot
        {
          OFFSET 0.73152 -45.1104 -5.12064
          CHANNELS 3 Zrotation Xrotation Yrotation
          End Site
          {
            OFFSET -1.1221 -3.69964 12.103
          }
        }
      }
    }
  }
  JOINT lButtock
  {
    OFFSET 8.77824 4.35084 1.2192
    CHANNELS 3 Zrotation Xrotation Yrotation
    JOINT lThigh
    {
      OFFSET 0 -1.70687 -2.19456
      CHANNELS 3 Zrotation Xrotation Yrotation
      JOINT lShin
      {
        OFFSET 0 -36.8199 0.73152
        CHANNELS 3 Zrotation Xrotation Yrotation
        JOINT lFoot
        {
          OFFSET -0.73152 -45.1104 -5.12064
          CHANNELS 3 Zrotation Xrotation Yrotation
          End Site
          {
            OFFSET 1.1221 -3.69964 12.103
          }
        }
      }
    }
  }
}
MOTION
Frames:	5
Frame Time:	0.03333
0.0 0.0 0.0 0.0 0.0 0.0 0.0 0.0 0.0 0.0 0.0 0.0 0.0 0.0 0.0 0.0 0.0 0.0 0.0 0.0 0.0 0.0 0.0 0.0 0.0 0.0 0.0 0.0 0.0 0.0 0.0 0.0 0.0 0.0 0.0 0.0 0.0 0.0 0.0 0.0 0.0 0.0 0.0 0.0 0.0 0.0 0.0 0.0 0.0 0.0 0.0 0.0 0.0 0.0 0.0 0.0 0.0 0.0 0.0 0.0 0.0 0.0 0.0 0.0 0.0 0.0 0.0 0.0 0.0 0.0 0.0 0.0 0.0 0.0 0.0 0.0 0.0 0.0 0.0 0.0 0.0 0.0 0.0 0.0 0.0 0.0 0.0 0.0 0.0 0.0 0.0 0.0 0.0 0.0 0.0 0.0 0.0 0.0 0.0 0.0 0.0 0.0 0.0 0.0 0.0 0.0 0.0 0.0 0.0 0.0 0.0 0.0 0.0 0.0 0.0 0.0 0.0 0.0 0.0 0.0 0.0 0.0 0.0 0.0 0.0 0.0 0.0 0.0 0.0 0.0 0.0 0.0
-0.037399999999999996 49.350300000000004 0.131 11.559866 5.857741 9.026063 -23.504645 3.924028 89.942233 -6.263736 -8.103907 -84.72639 -9.643104 17.90672 -22.453694 16.740744 -24.94286 -12.141054 0.00124 -0.0 -0.001831 0.00124 -0.0 -0.001831 3.737261 -33.150797 -6.414653 53.30477 -12.626186 49.983049 -177.379972 -10.606204 124.479095 146.159038 -44.402847 134.108618 -172.745916 -10.423703 89.929189 -9.106206 -49.210933 4.586567 1.339064 -2.205099 -0.739244 3.610571 11.291241 1.881761 -152.826548 14.793041 138.5141 -5.026538 21.266004 4.803659 -0.00059 0.063723 0.020401 3.147973 45.211247 8.975899 -11.664477 -23.130123 -11.071672 -154.248425 38.255601 -148.443777 159.222472 -48.725273 -170.565895 60.511874 17.365603 2.433934 -8.501313 -31.049399 134.110127 146.751066 29.563625 -128.812939 173.770212 -11.44006 -89.891999 161.416928 -0.949047 -85.733128 0.328198 0.529848 -0.18547 177.876958 -34.334479 -106.356045 89.835617 60.703556 -81.263041 -2.853762 1.673245 -0.399085 73.626513 72.971641 -91.554436 73.457145 -82.443732 90.552416 -7.222904 22.274069 -6.416351 127.657396 -31.008708 125.611147 -0.008833 -0.000195 -0.008833 -87.354202 -59.718391 1.775133 86.311975 16.82965 -154.551949 108.688816 51.033981 -21.84782 0.001526 -0.001483 0.002289 7.764637 19.739484 126.325893 29.255438 -15.162806 84.366838 -71.214013 10.226321 -171.238657
-0.0391 49.309599999999996 0.16 11.443052 5.9093 8.957265 -21.168556 6.311233 1.519489 5.658541 -8.717898 4.63105 -14.82289 25.765011 -73.052981 38.588366 -0.54292 36.370104 0.001427 0.0 0.000996 -0.004841 0.0 -0.000319 1.990083 -14.052898 -2.881393 96.325806 -35.587197 80.984184 -153.395883 -5.403267 135.811312 77.294346 -63.501524 68.664651 -103.199074 36.330533 60.111434 -146.189386 -23.449266 77.093174 -152.106004 -18.556174 121.368181 82.576968 -69.224919 30.68155 -158.521985 -0.19206 142.145361 -34.774462 54.918843 29.488685 -145.099759 -1.520877 -178.649696 -155.408474 1.342096 -179.394067 -12.373233 -24.158481 -11.757231 -22.427996 -40.181671 -23.674623 -4.208504 -43.443119 8.384235 -96.841891 31.4409 83.41635 90.486092 -29.265538 -74.058075 172.45166 -51.081635 -159.135365 173.770515 -11.439997 -89.891504 -9.884828 -60.15012 -11.782363 -159.639877 -69.972948 -102.395057 -143.958911 -66.233322 -81.148437 12.843036 28.997192 -9.149294 1.213465 12.652812 -2.196903 0.001339 -0.060812 0.019311 -3.318411 44.717016 -8.801055 -12.987913 44.344523 -10.75997 155.605186 38.117522 148.132466 -0.0 0.000894 0.001079 -84.775286 -60.785474 -84.652123 -38.305762 79.124202 69.216997 -28.442784 7.303445 -11.198576 0.052809 0.000453 0.039607 9.854303 19.735187 -128.868556 -19.121529 -11.602798 157.697958 -107.938966 -21.617052 -4.070746
-0.0291 49.2847 0.1571 11.413459 5.998839 8.912947 -18.814396 4.28474 -80.506745 7.088031 2.311575 85.795307 -14.544657 28.714382 -89.653262 40.249406 9.431301 49.666257 -0.000217 -0.0 0.000813 -0.000217 -0.0 0.000813 -159.21778 -47.29859 170.256769 -123.57532 -2.935898 -160.898209 -166.452349 -80.307663 -150.887056 -6.776497 44.295726 4.871819 88.928611 -50.831347 37.599349 -160.653507 -79.301649 155.709359 -64.087085 43.039478 52.301204 94.720475 -64.62803 46.337386 23.902965 -61.333981 1.399099 9.711155 -20.381569 -1.427023 -0.020319 -1.727046 -0.541815 -155.829916 -10.611156 173.127009 32.014392 83.320838 6.230678 11.333198 31.269331 5.890786 142.974284 39.432075 -147.391051 103.719347 7.124926 -90.113244 10.184627 -20.122498 141.40035 156.493651 13.305733 -138.972111 4.166345 4.057462 -0.784052 -24.659864 -35.743326 13.004227 -2.324412 -3.868191 1.259527 174.812961 -31.613376 -107.389021 -0.047955 -0.13859 0.026045 -2.946032 0.844879 -0.084735 145.107159 -0.952968 178.828542 -12.005274 29.59816 5.641639 -44.766146 86.376808 5.401515 21.610241 -37.140765 21.819011 -0.000724 0.000718 -0.000362 -84.745898 -60.728465 -84.616649 -106.392542 77.406841 -40.348885 -162.605713 29.485028 -145.724421 0.000279 0.000718 0.000418 9.111135 21.507768 -3.195409 -8.411915 21.548615 -61.265307 85.900434 -59.571961 165.655934
-0.029300000000000003 49.2653 0.1411 11.450118 6.081868 8.978238 -21.291734 6.171828 -0.0 5.932424 -8.607469 5.943964 -7.2169 35.739779 -149.108749 26.209949 40.256008 101.717856 -0.001512 0.0 -0.004816 0.005508 0.0 0.001703 -132.776172 52.552292 136.717486 144.413174 33.10817 -159.994537 -15.059216 59.118704 34.848019 -3.37661 34.704326 4.173576 -89.13646 38.428098 50.298964 20.289405 -26.941959 22.351238 -4.706301 7.224228 2.854257 -152.775889 0.182645 109.238918 -154.143686 11.634685 139.428412 -113.941735 58.964951 104.352606 -75.403822 72.954853 93.419423 -159.825338 -1.671662 176.539797 -86.001413 -50.499103 -84.370989 17.05192 43.728388 7.306685 -0.163344 -0.990045 0.218366 99.447901 -6.920645 146.21054 171.993126 -16.502563 77.531969 12.51116 -42.40163 10.715764 166.63174 -4.304893 -89.770531 71.111003 0.250337 -23.292743 -21.122313 -37.641624 5.9199 111.585671 39.013315 -91.034197 36.035959 51.722883 -29.833007 34.334032 55.121125 -29.132803 145.099464 -1.522909 178.651633 -12.145307 33.168296 5.239644 151.76479 35.622029 147.263792 14.82062 -29.784103 16.392647 179.876189 75.748303 0.095425 149.092261 -10.828645 80.673919 82.364025 9.568562 -57.881322 -61.198641 11.593066 4.928915 -0.0 -0.000138 -0.001399 8.518547 19.222051 155.537021 13.66697 -18.289482 165.220788 40.264087 -80.59328 121.198422
